<?xml version="1.0" encoding="UTF-8" standalone="no"?>
<!DOCTYPE svg PUBLIC "-//W3C//DTD SVG 1.1//EN"
 "http://www.w3.org/Graphics/SVG/1.1/DTD/svg11.dtd">
<!-- Generated by graphviz version 2.40.1 (20161225.0304)
 -->
<!-- Title: G Pages: 1 -->
<svg width="492pt" height="339pt"
 viewBox="0.00 0.00 492.00 338.66" xmlns="http://www.w3.org/2000/svg" xmlns:xlink="http://www.w3.org/1999/xlink">
<g id="graph0" class="graph" transform="scale(1 1) rotate(0) translate(4 334.6641)">
<title>G</title>
<polygon fill="#e6e6fa" stroke="transparent" points="-4,4 -4,-334.6641 488,-334.6641 488,4 -4,4"/>
<text text-anchor="middle" x="242" y="-310.6641" font-family="monospace" font-size="20.00" fill="#141414">Iris Dataset</text>
<g id="clust1" class="cluster">
<title>cluster_1</title>
<defs>
<linearGradient id="l_0" gradientUnits="userSpaceOnUse" x1="242" y1="-267.1094" x2="242" y2="-183.5547" >
<stop offset="0" style="stop-color:#00cd66;stop-opacity:1.;"/>
<stop offset="1" style="stop-color:#00ff00;stop-opacity:1.;"/>
</linearGradient>
</defs>
<polygon fill="url(#l_0)" stroke="#000000" points="99,-183.5547 99,-267.1094 385,-267.1094 385,-183.5547 99,-183.5547"/>
<text text-anchor="middle" x="242" y="-247.1094" font-family="monospace" font-size="20.00" fill="#000000">Input</text>
</g>
<g id="clust2" class="cluster">
<title>cluster_3</title>
<defs>
<linearGradient id="l_1" gradientUnits="userSpaceOnUse" x1="242" y1="-8" x2="242" y2="-91.5547" >
<stop offset="0" style="stop-color:#00cd66;stop-opacity:1.;"/>
<stop offset="1" style="stop-color:#00ff00;stop-opacity:1.;"/>
</linearGradient>
</defs>
<polygon fill="url(#l_1)" stroke="#000000" points="102,-8 102,-91.5547 382,-91.5547 382,-8 102,-8"/>
<text text-anchor="middle" x="242" y="-19.5547" font-family="monospace" font-size="20.00" fill="#000000">Error Signal</text>
</g>
<g id="clust3" class="cluster">
<title>cluster_2</title>
<defs>
<radialGradient id="r_0" cx="50%" cy="50%" r="75%" fx="50%" fy="50%">
<stop offset="0" style="stop-color:#fff0f5;stop-opacity:1.;"/>
<stop offset="1" style="stop-color:#696969;stop-opacity:1.;"/>
</radialGradient>
</defs>
<polygon fill="url(#r_0)" stroke="#191970" points="8,-111.5547 8,-163.5547 476,-163.5547 476,-111.5547 8,-111.5547"/>
</g>
<!-- 0 -->
<g id="node1" class="node">
<title>0</title>
<defs>
<linearGradient id="l_2" gradientUnits="userSpaceOnUse" x1="323" y1="-209.5547" x2="377" y2="-209.5547" >
<stop offset="0" style="stop-color:#ffa500;stop-opacity:1.;"/>
<stop offset="1" style="stop-color:#b22222;stop-opacity:1.;"/>
</linearGradient>
</defs>
<ellipse fill="url(#l_2)" stroke="#191970" cx="350" cy="-209.5547" rx="27" ry="18"/>
<text text-anchor="middle" x="350" y="-206.5988" font-family="monospace" font-size="14.00" fill="#000000">4</text>
</g>
<!-- 4 -->
<g id="node8" class="node">
<title>4</title>
<ellipse fill="#00bfff" stroke="#191970" cx="148" cy="-137.5547" rx="38.1802" ry="18"/>
<text text-anchor="middle" x="148" y="-134.5988" font-family="monospace" font-size="14.00" fill="#121212">0.000</text>
</g>
<!-- 0&#45;&gt;4 -->
<g id="edge11" class="edge">
<title>0:s&#45;&gt;4:n</title>
<path fill="none" stroke="#36648b" d="M350,-191.5547C350,-191.5547 148,-155.5547 148,-155.5547"/>
</g>
<!-- 5 -->
<g id="node9" class="node">
<title>5</title>
<defs>
<linearGradient id="l_3" gradientUnits="userSpaceOnUse" x1="21.9794" y1="-127.7512" x2="86.0206" y2="-147.3582" >
<stop offset="0.259" style="stop-color:#ffff00;stop-opacity:1.;"/>
<stop offset="0.260" style="stop-color:#00bfff;stop-opacity:1.;"/>
</linearGradient>
</defs>
<ellipse fill="url(#l_3)" stroke="#191970" cx="54" cy="-137.5547" rx="38.1802" ry="18"/>
<text text-anchor="middle" x="54" y="-134.5988" font-family="monospace" font-size="14.00" fill="#121212">0.260</text>
</g>
<!-- 0&#45;&gt;5 -->
<g id="edge12" class="edge">
<title>0:s&#45;&gt;5:n</title>
<path fill="none" stroke="#36648b" d="M350,-191.5547C350,-191.5547 54,-155.5547 54,-155.5547"/>
</g>
<!-- 6 -->
<g id="node10" class="node">
<title>6</title>
<defs>
<linearGradient id="l_4" gradientUnits="userSpaceOnUse" x1="397.9794" y1="-127.7512" x2="462.0206" y2="-147.3582" >
<stop offset="0.869" style="stop-color:#ffff00;stop-opacity:1.;"/>
<stop offset="0.870" style="stop-color:#00bfff;stop-opacity:1.;"/>
</linearGradient>
</defs>
<ellipse fill="url(#l_4)" stroke="#191970" cx="430" cy="-137.5547" rx="38.1802" ry="18"/>
<text text-anchor="middle" x="430" y="-134.5988" font-family="monospace" font-size="14.00" fill="#121212">0.874</text>
</g>
<!-- 0&#45;&gt;6 -->
<g id="edge13" class="edge">
<title>0:s&#45;&gt;6:n</title>
<path fill="none" stroke="#36648b" d="M350,-191.5547C350,-191.5547 430,-155.5547 430,-155.5547"/>
</g>
<!-- 7 -->
<g id="node11" class="node">
<title>7</title>
<defs>
<linearGradient id="l_5" gradientUnits="userSpaceOnUse" x1="303.9794" y1="-127.7512" x2="368.0206" y2="-147.3582" >
<stop offset="0.089" style="stop-color:#ffff00;stop-opacity:1.;"/>
<stop offset="0.090" style="stop-color:#00bfff;stop-opacity:1.;"/>
</linearGradient>
</defs>
<ellipse fill="url(#l_5)" stroke="#191970" cx="336" cy="-137.5547" rx="38.1802" ry="18"/>
<text text-anchor="middle" x="336" y="-134.5988" font-family="monospace" font-size="14.00" fill="#121212">0.092</text>
</g>
<!-- 0&#45;&gt;7 -->
<g id="edge14" class="edge">
<title>0:s&#45;&gt;7:n</title>
<path fill="none" stroke="#36648b" d="M350,-191.5547C350,-191.5547 336,-155.5547 336,-155.5547"/>
</g>
<!-- 8 -->
<g id="node12" class="node">
<title>8</title>
<ellipse fill="#ffff00" stroke="#191970" cx="242" cy="-137.5547" rx="38.1802" ry="18"/>
<text text-anchor="middle" x="242" y="-134.5988" font-family="monospace" font-size="14.00" fill="#121212">1.000</text>
</g>
<!-- 0&#45;&gt;8 -->
<g id="edge15" class="edge">
<title>0:s&#45;&gt;8:n</title>
<path fill="none" stroke="#36648b" d="M350,-191.5547C350,-191.5547 242,-155.5547 242,-155.5547"/>
</g>
<!-- 1 -->
<g id="node2" class="node">
<title>1</title>
<defs>
<linearGradient id="l_6" gradientUnits="userSpaceOnUse" x1="251" y1="-209.5547" x2="305" y2="-209.5547" >
<stop offset="0" style="stop-color:#ffa500;stop-opacity:1.;"/>
<stop offset="1" style="stop-color:#b22222;stop-opacity:1.;"/>
</linearGradient>
</defs>
<ellipse fill="url(#l_6)" stroke="#191970" cx="278" cy="-209.5547" rx="27" ry="18"/>
<text text-anchor="middle" x="278" y="-206.5988" font-family="monospace" font-size="14.00" fill="#000000">3</text>
</g>
<!-- 1&#45;&gt;4 -->
<g id="edge1" class="edge">
<title>1:s&#45;&gt;4:n</title>
<path fill="none" stroke="#36648b" d="M278,-191.5547C278,-191.5547 148,-155.5547 148,-155.5547"/>
</g>
<!-- 1&#45;&gt;5 -->
<g id="edge2" class="edge">
<title>1:s&#45;&gt;5:n</title>
<path fill="none" stroke="#36648b" d="M278,-191.5547C278,-191.5547 54,-155.5547 54,-155.5547"/>
</g>
<!-- 1&#45;&gt;6 -->
<g id="edge3" class="edge">
<title>1:s&#45;&gt;6:n</title>
<path fill="none" stroke="#36648b" d="M278,-191.5547C278,-191.5547 430,-155.5547 430,-155.5547"/>
</g>
<!-- 1&#45;&gt;7 -->
<g id="edge4" class="edge">
<title>1:s&#45;&gt;7:n</title>
<path fill="none" stroke="#36648b" d="M278,-191.5547C278,-191.5547 336,-155.5547 336,-155.5547"/>
</g>
<!-- 1&#45;&gt;8 -->
<g id="edge5" class="edge">
<title>1:s&#45;&gt;8:n</title>
<path fill="none" stroke="#36648b" d="M278,-191.5547C278,-191.5547 242,-155.5547 242,-155.5547"/>
</g>
<!-- 2 -->
<g id="node3" class="node">
<title>2</title>
<defs>
<linearGradient id="l_7" gradientUnits="userSpaceOnUse" x1="179" y1="-209.5547" x2="233" y2="-209.5547" >
<stop offset="0" style="stop-color:#ffa500;stop-opacity:1.;"/>
<stop offset="1" style="stop-color:#b22222;stop-opacity:1.;"/>
</linearGradient>
</defs>
<ellipse fill="url(#l_7)" stroke="#191970" cx="206" cy="-209.5547" rx="27" ry="18"/>
<text text-anchor="middle" x="206" y="-206.5988" font-family="monospace" font-size="14.00" fill="#000000">2</text>
</g>
<!-- 2&#45;&gt;4 -->
<g id="edge6" class="edge">
<title>2:s&#45;&gt;4:n</title>
<path fill="none" stroke="#36648b" d="M206,-191.5547C206,-191.5547 148,-155.5547 148,-155.5547"/>
</g>
<!-- 2&#45;&gt;5 -->
<g id="edge7" class="edge">
<title>2:s&#45;&gt;5:n</title>
<path fill="none" stroke="#36648b" d="M206,-191.5547C206,-191.5547 54,-155.5547 54,-155.5547"/>
</g>
<!-- 2&#45;&gt;6 -->
<g id="edge8" class="edge">
<title>2:s&#45;&gt;6:n</title>
<path fill="none" stroke="#36648b" d="M206,-191.5547C206,-191.5547 430,-155.5547 430,-155.5547"/>
</g>
<!-- 2&#45;&gt;7 -->
<g id="edge9" class="edge">
<title>2:s&#45;&gt;7:n</title>
<path fill="none" stroke="#36648b" d="M206,-191.5547C206,-191.5547 336,-155.5547 336,-155.5547"/>
</g>
<!-- 2&#45;&gt;8 -->
<g id="edge10" class="edge">
<title>2:s&#45;&gt;8:n</title>
<path fill="none" stroke="#36648b" d="M206,-191.5547C206,-191.5547 242,-155.5547 242,-155.5547"/>
</g>
<!-- 3 -->
<g id="node4" class="node">
<title>3</title>
<defs>
<linearGradient id="l_8" gradientUnits="userSpaceOnUse" x1="107" y1="-209.5547" x2="161" y2="-209.5547" >
<stop offset="0" style="stop-color:#ffa500;stop-opacity:1.;"/>
<stop offset="1" style="stop-color:#b22222;stop-opacity:1.;"/>
</linearGradient>
</defs>
<ellipse fill="url(#l_8)" stroke="#191970" cx="134" cy="-209.5547" rx="27" ry="18"/>
<text text-anchor="middle" x="134" y="-206.5988" font-family="monospace" font-size="14.00" fill="#000000">1</text>
</g>
<!-- 3&#45;&gt;4 -->
<g id="edge16" class="edge">
<title>3:s&#45;&gt;4:n</title>
<path fill="none" stroke="#36648b" d="M134,-191.5547C134,-191.5547 148,-155.5547 148,-155.5547"/>
</g>
<!-- 3&#45;&gt;5 -->
<g id="edge17" class="edge">
<title>3:s&#45;&gt;5:n</title>
<path fill="none" stroke="#36648b" d="M134,-191.5547C134,-191.5547 54,-155.5547 54,-155.5547"/>
</g>
<!-- 3&#45;&gt;6 -->
<g id="edge18" class="edge">
<title>3:s&#45;&gt;6:n</title>
<path fill="none" stroke="#36648b" d="M134,-191.5547C134,-191.5547 430,-155.5547 430,-155.5547"/>
</g>
<!-- 3&#45;&gt;7 -->
<g id="edge19" class="edge">
<title>3:s&#45;&gt;7:n</title>
<path fill="none" stroke="#36648b" d="M134,-191.5547C134,-191.5547 336,-155.5547 336,-155.5547"/>
</g>
<!-- 3&#45;&gt;8 -->
<g id="edge20" class="edge">
<title>3:s&#45;&gt;8:n</title>
<path fill="none" stroke="#36648b" d="M134,-191.5547C134,-191.5547 242,-155.5547 242,-155.5547"/>
</g>
<!-- 9 -->
<g id="node5" class="node">
<title>9</title>
<defs>
<linearGradient id="l_9" gradientUnits="userSpaceOnUse" x1="203.8198" y1="-65.5547" x2="280.1802" y2="-65.5547" >
<stop offset="0" style="stop-color:#ffa500;stop-opacity:1.;"/>
<stop offset="1" style="stop-color:#b22222;stop-opacity:1.;"/>
</linearGradient>
</defs>
<ellipse fill="url(#l_9)" stroke="#191970" cx="242" cy="-65.5547" rx="38.1802" ry="18"/>
<text text-anchor="middle" x="242" y="-62.5988" font-family="monospace" font-size="14.00" fill="#000000">0.045</text>
</g>
<!-- 10 -->
<g id="node6" class="node">
<title>10</title>
<defs>
<linearGradient id="l_10" gradientUnits="userSpaceOnUse" x1="109.8198" y1="-65.5547" x2="186.1802" y2="-65.5547" >
<stop offset="0" style="stop-color:#ffa500;stop-opacity:1.;"/>
<stop offset="1" style="stop-color:#b22222;stop-opacity:1.;"/>
</linearGradient>
</defs>
<ellipse fill="url(#l_10)" stroke="#191970" cx="148" cy="-65.5547" rx="38.1802" ry="18"/>
<text text-anchor="middle" x="148" y="-62.5988" font-family="monospace" font-size="14.00" fill="#000000">0.000</text>
</g>
<!-- 11 -->
<g id="node7" class="node">
<title>11</title>
<defs>
<linearGradient id="l_11" gradientUnits="userSpaceOnUse" x1="297.8198" y1="-65.5547" x2="374.1802" y2="-65.5547" >
<stop offset="0" style="stop-color:#ffa500;stop-opacity:1.;"/>
<stop offset="1" style="stop-color:#b22222;stop-opacity:1.;"/>
</linearGradient>
</defs>
<ellipse fill="url(#l_11)" stroke="#191970" cx="336" cy="-65.5547" rx="38.1802" ry="18"/>
<text text-anchor="middle" x="336" y="-62.5988" font-family="monospace" font-size="14.00" fill="#000000">0.040</text>
</g>
<!-- 4&#45;&gt;9 -->
<g id="edge21" class="edge">
<title>4:s&#45;&gt;9:n</title>
<path fill="none" stroke="#36648b" d="M148,-119.5547C148,-119.5547 213.6864,-94.3982 235.2398,-86.1437"/>
<polygon fill="#36648b" stroke="#36648b" points="236.3393,-88.3462 242,-83.5547 234.5867,-83.7703 236.3393,-88.3462"/>
</g>
<!-- 4&#45;&gt;10 -->
<g id="edge22" class="edge">
<title>4:s&#45;&gt;10:n</title>
<path fill="none" stroke="#36648b" d="M148,-119.5547C148,-119.5547 148,-101.3591 148,-90.8398"/>
<polygon fill="#36648b" stroke="#36648b" points="150.4501,-90.5547 148,-83.5547 145.5501,-90.5547 150.4501,-90.5547"/>
</g>
<!-- 4&#45;&gt;11 -->
<g id="edge23" class="edge">
<title>4:s&#45;&gt;11:n</title>
<path fill="none" stroke="#36648b" d="M148,-119.5547C148,-119.5547 294.5193,-91.4978 328.8597,-84.922"/>
<polygon fill="#36648b" stroke="#36648b" points="329.5857,-87.2776 336,-83.5547 328.6641,-82.465 329.5857,-87.2776"/>
</g>
<!-- 5&#45;&gt;9 -->
<g id="edge24" class="edge">
<title>5:s&#45;&gt;9:n</title>
<path fill="none" stroke="#36648b" d="M54,-119.5547C54,-119.5547 200.5193,-91.4978 234.8597,-84.922"/>
<polygon fill="#36648b" stroke="#36648b" points="235.5857,-87.2776 242,-83.5547 234.6641,-82.465 235.5857,-87.2776"/>
</g>
<!-- 5&#45;&gt;10 -->
<g id="edge25" class="edge">
<title>5:s&#45;&gt;10:n</title>
<path fill="none" stroke="#36648b" d="M54,-119.5547C54,-119.5547 119.6864,-94.3982 141.2398,-86.1437"/>
<polygon fill="#36648b" stroke="#36648b" points="142.3393,-88.3462 148,-83.5547 140.5867,-83.7703 142.3393,-88.3462"/>
</g>
<!-- 5&#45;&gt;11 -->
<g id="edge26" class="edge">
<title>5:s&#45;&gt;11:n</title>
<path fill="none" stroke="#36648b" d="M54,-119.5547C54,-119.5547 285.6035,-89.9883 329.0292,-84.4446"/>
<polygon fill="#36648b" stroke="#36648b" points="329.3666,-86.8715 336,-83.5547 328.7461,-82.0109 329.3666,-86.8715"/>
</g>
<!-- 6&#45;&gt;9 -->
<g id="edge27" class="edge">
<title>6:s&#45;&gt;9:n</title>
<path fill="none" stroke="#36648b" d="M430,-119.5547C430,-119.5547 283.4807,-91.4978 249.1403,-84.922"/>
<polygon fill="#36648b" stroke="#36648b" points="249.3359,-82.465 242,-83.5547 248.4143,-87.2776 249.3359,-82.465"/>
</g>
<!-- 6&#45;&gt;10 -->
<g id="edge28" class="edge">
<title>6:s&#45;&gt;10:n</title>
<path fill="none" stroke="#36648b" d="M430,-119.5547C430,-119.5547 198.3965,-89.9883 154.9708,-84.4446"/>
<polygon fill="#36648b" stroke="#36648b" points="155.2539,-82.0109 148,-83.5547 154.6334,-86.8715 155.2539,-82.0109"/>
</g>
<!-- 6&#45;&gt;11 -->
<g id="edge29" class="edge">
<title>6:s&#45;&gt;11:n</title>
<path fill="none" stroke="#36648b" d="M430,-119.5547C430,-119.5547 364.3136,-94.3982 342.7602,-86.1437"/>
<polygon fill="#36648b" stroke="#36648b" points="343.4133,-83.7703 336,-83.5547 341.6607,-88.3462 343.4133,-83.7703"/>
</g>
<!-- 7&#45;&gt;9 -->
<g id="edge30" class="edge">
<title>7:s&#45;&gt;9:n</title>
<path fill="none" stroke="#36648b" d="M336,-119.5547C336,-119.5547 270.3136,-94.3982 248.7602,-86.1437"/>
<polygon fill="#36648b" stroke="#36648b" points="249.4133,-83.7703 242,-83.5547 247.6607,-88.3462 249.4133,-83.7703"/>
</g>
<!-- 7&#45;&gt;10 -->
<g id="edge31" class="edge">
<title>7:s&#45;&gt;10:n</title>
<path fill="none" stroke="#36648b" d="M336,-119.5547C336,-119.5547 189.4807,-91.4978 155.1403,-84.922"/>
<polygon fill="#36648b" stroke="#36648b" points="155.3359,-82.465 148,-83.5547 154.4143,-87.2776 155.3359,-82.465"/>
</g>
<!-- 7&#45;&gt;11 -->
<g id="edge32" class="edge">
<title>7:s&#45;&gt;11:n</title>
<path fill="none" stroke="#36648b" d="M336,-119.5547C336,-119.5547 336,-101.3591 336,-90.8398"/>
<polygon fill="#36648b" stroke="#36648b" points="338.4501,-90.5547 336,-83.5547 333.5501,-90.5547 338.4501,-90.5547"/>
</g>
<!-- 8&#45;&gt;9 -->
<g id="edge33" class="edge">
<title>8:s&#45;&gt;9:n</title>
<path fill="none" stroke="#36648b" d="M242,-119.5547C242,-119.5547 242,-101.3591 242,-90.8398"/>
<polygon fill="#36648b" stroke="#36648b" points="244.4501,-90.5547 242,-83.5547 239.5501,-90.5547 244.4501,-90.5547"/>
</g>
<!-- 8&#45;&gt;10 -->
<g id="edge34" class="edge">
<title>8:s&#45;&gt;10:n</title>
<path fill="none" stroke="#36648b" d="M242,-119.5547C242,-119.5547 176.3136,-94.3982 154.7602,-86.1437"/>
<polygon fill="#36648b" stroke="#36648b" points="155.4133,-83.7703 148,-83.5547 153.6607,-88.3462 155.4133,-83.7703"/>
</g>
<!-- 8&#45;&gt;11 -->
<g id="edge35" class="edge">
<title>8:s&#45;&gt;11:n</title>
<path fill="none" stroke="#36648b" d="M242,-119.5547C242,-119.5547 307.6864,-94.3982 329.2398,-86.1437"/>
<polygon fill="#36648b" stroke="#36648b" points="330.3393,-88.3462 336,-83.5547 328.5867,-83.7703 330.3393,-88.3462"/>
</g>
</g>
</svg>
