<?xml version="1.0" encoding="UTF-8" standalone="no"?>
<!DOCTYPE svg PUBLIC "-//W3C//DTD SVG 1.1//EN"
 "http://www.w3.org/Graphics/SVG/1.1/DTD/svg11.dtd">
<!-- Generated by graphviz version 2.38.0 (20140413.2041)
 -->
<!-- Title: G Pages: 1 -->
<svg width="492pt" height="339pt"
 viewBox="0.00 0.00 492.00 338.66" xmlns="http://www.w3.org/2000/svg" xmlns:xlink="http://www.w3.org/1999/xlink">
<g id="graph0" class="graph" transform="scale(1 1) rotate(0) translate(4 334.664)">
<title>G</title>
<polygon fill="lavender" stroke="none" points="-4,4 -4,-334.664 488,-334.664 488,4 -4,4"/>
<text text-anchor="middle" x="242" y="-310.664" font-family="monospace" font-size="20.00" fill="#141414">Iris Dataset</text>
<g id="clust1" class="cluster"><title>cluster_1</title>
<defs>
<linearGradient id="l_0" gradientUnits="userSpaceOnUse" x1="242" y1="-267.109" x2="242" y2="-183.555" >
<stop offset="0" style="stop-color:#00cd66;stop-opacity:1.;"/>
<stop offset="1" style="stop-color:green;stop-opacity:1.;"/>
</linearGradient>
</defs>
<polygon fill="url(#l_0)" stroke="black" points="99,-183.555 99,-267.109 385,-267.109 385,-183.555 99,-183.555"/>
<text text-anchor="middle" x="242" y="-247.109" font-family="monospace" font-size="20.00">Input</text>
</g>
<g id="clust2" class="cluster"><title>cluster_3</title>
<defs>
<linearGradient id="l_1" gradientUnits="userSpaceOnUse" x1="242" y1="-8" x2="242" y2="-91.5547" >
<stop offset="0" style="stop-color:#00cd66;stop-opacity:1.;"/>
<stop offset="1" style="stop-color:green;stop-opacity:1.;"/>
</linearGradient>
</defs>
<polygon fill="url(#l_1)" stroke="black" points="102,-8 102,-91.5547 382,-91.5547 382,-8 102,-8"/>
<text text-anchor="middle" x="242" y="-19.5547" font-family="monospace" font-size="20.00">Error Signal</text>
</g>
<g id="clust3" class="cluster"><title>cluster_2</title>
<defs>
<radialGradient id="r_0" cx="50%" cy="50%" r="75%" fx="50%" fy="50%">
<stop offset="0" style="stop-color:lavenderblush;stop-opacity:1.;"/>
<stop offset="1" style="stop-color:dimgrey;stop-opacity:1.;"/>
</radialGradient>
</defs>
<polygon fill="url(#r_0)" stroke="midnightblue" points="8,-111.555 8,-163.555 476,-163.555 476,-111.555 8,-111.555"/>
</g>
<!-- 0 -->
<g id="node1" class="node"><title>0</title>
<defs>
<linearGradient id="l_2" gradientUnits="userSpaceOnUse" x1="323" y1="-209.555" x2="377" y2="-209.555" >
<stop offset="0" style="stop-color:orange;stop-opacity:1.;"/>
<stop offset="1" style="stop-color:firebrick;stop-opacity:1.;"/>
</linearGradient>
</defs>
<ellipse fill="url(#l_2)" stroke="midnightblue" cx="350" cy="-209.555" rx="27" ry="18"/>
<text text-anchor="middle" x="350" y="-206.599" font-family="monospace" font-size="14.00">pw</text>
</g>
<!-- 4 -->
<g id="node8" class="node"><title>4</title>
<defs>
<linearGradient id="l_3" gradientUnits="userSpaceOnUse" x1="115.979" y1="-127.751" x2="180.021" y2="-147.358" >
<stop offset="0.159" style="stop-color:yellow;stop-opacity:1.;"/>
<stop offset="0.160" style="stop-color:#00bfff;stop-opacity:1.;"/>
</linearGradient>
</defs>
<ellipse fill="url(#l_3)" stroke="midnightblue" cx="148" cy="-137.555" rx="38.1802" ry="18"/>
<text text-anchor="middle" x="148" y="-134.599" font-family="monospace" font-size="14.00" fill="#121212">0.160</text>
</g>
<!-- 0&#45;&gt;4 -->
<g id="edge11" class="edge"><title>0:s&#45;&gt;4:n</title>
<path fill="none" stroke="#36648b" d="M350,-190.555C350,-190.555 148,-156.555 148,-156.555"/>
</g>
<!-- 5 -->
<g id="node9" class="node"><title>5</title>
<ellipse fill="#00bfff" stroke="midnightblue" cx="54" cy="-137.555" rx="38.1802" ry="18"/>
<text text-anchor="middle" x="54" y="-134.599" font-family="monospace" font-size="14.00" fill="#121212">0.001</text>
</g>
<!-- 0&#45;&gt;5 -->
<g id="edge12" class="edge"><title>0:s&#45;&gt;5:n</title>
<path fill="none" stroke="#36648b" d="M350,-190.555C350,-190.555 54,-156.555 54,-156.555"/>
</g>
<!-- 6 -->
<g id="node10" class="node"><title>6</title>
<defs>
<linearGradient id="l_4" gradientUnits="userSpaceOnUse" x1="397.979" y1="-127.751" x2="462.021" y2="-147.358" >
<stop offset="0.169" style="stop-color:yellow;stop-opacity:1.;"/>
<stop offset="0.170" style="stop-color:#00bfff;stop-opacity:1.;"/>
</linearGradient>
</defs>
<ellipse fill="url(#l_4)" stroke="midnightblue" cx="430" cy="-137.555" rx="38.1802" ry="18"/>
<text text-anchor="middle" x="430" y="-134.599" font-family="monospace" font-size="14.00" fill="#121212">0.174</text>
</g>
<!-- 0&#45;&gt;6 -->
<g id="edge13" class="edge"><title>0:s&#45;&gt;6:n</title>
<path fill="none" stroke="#36648b" d="M350,-190.555C350,-190.555 430,-156.555 430,-156.555"/>
</g>
<!-- 7 -->
<g id="node11" class="node"><title>7</title>
<defs>
<linearGradient id="l_5" gradientUnits="userSpaceOnUse" x1="303.979" y1="-127.751" x2="368.021" y2="-147.358" >
<stop offset="0.399" style="stop-color:yellow;stop-opacity:1.;"/>
<stop offset="0.400" style="stop-color:#00bfff;stop-opacity:1.;"/>
</linearGradient>
</defs>
<ellipse fill="url(#l_5)" stroke="midnightblue" cx="336" cy="-137.555" rx="38.1802" ry="18"/>
<text text-anchor="middle" x="336" y="-134.599" font-family="monospace" font-size="14.00" fill="#121212">0.404</text>
</g>
<!-- 0&#45;&gt;7 -->
<g id="edge14" class="edge"><title>0:s&#45;&gt;7:n</title>
<path fill="none" stroke="#36648b" d="M350,-190.555C350,-190.555 336,-156.555 336,-156.555"/>
</g>
<!-- 8 -->
<g id="node12" class="node"><title>8</title>
<defs>
<linearGradient id="l_6" gradientUnits="userSpaceOnUse" x1="209.979" y1="-127.751" x2="274.021" y2="-147.358" >
<stop offset="0.849" style="stop-color:yellow;stop-opacity:1.;"/>
<stop offset="0.850" style="stop-color:#00bfff;stop-opacity:1.;"/>
</linearGradient>
</defs>
<ellipse fill="url(#l_6)" stroke="midnightblue" cx="242" cy="-137.555" rx="38.1802" ry="18"/>
<text text-anchor="middle" x="242" y="-134.599" font-family="monospace" font-size="14.00" fill="#121212">0.846</text>
</g>
<!-- 0&#45;&gt;8 -->
<g id="edge15" class="edge"><title>0:s&#45;&gt;8:n</title>
<path fill="none" stroke="#36648b" d="M350,-190.555C350,-190.555 242,-156.555 242,-156.555"/>
</g>
<!-- 1 -->
<g id="node2" class="node"><title>1</title>
<defs>
<linearGradient id="l_7" gradientUnits="userSpaceOnUse" x1="251" y1="-209.555" x2="305" y2="-209.555" >
<stop offset="0" style="stop-color:orange;stop-opacity:1.;"/>
<stop offset="1" style="stop-color:firebrick;stop-opacity:1.;"/>
</linearGradient>
</defs>
<ellipse fill="url(#l_7)" stroke="midnightblue" cx="278" cy="-209.555" rx="27" ry="18"/>
<text text-anchor="middle" x="278" y="-206.599" font-family="monospace" font-size="14.00">pl</text>
</g>
<!-- 1&#45;&gt;4 -->
<g id="edge1" class="edge"><title>1:s&#45;&gt;4:n</title>
<path fill="none" stroke="#36648b" d="M278,-190.555C278,-190.555 148,-156.555 148,-156.555"/>
</g>
<!-- 1&#45;&gt;5 -->
<g id="edge2" class="edge"><title>1:s&#45;&gt;5:n</title>
<path fill="none" stroke="#36648b" d="M278,-190.555C278,-190.555 54,-156.555 54,-156.555"/>
</g>
<!-- 1&#45;&gt;6 -->
<g id="edge3" class="edge"><title>1:s&#45;&gt;6:n</title>
<path fill="none" stroke="#36648b" d="M278,-190.555C278,-190.555 430,-156.555 430,-156.555"/>
</g>
<!-- 1&#45;&gt;7 -->
<g id="edge4" class="edge"><title>1:s&#45;&gt;7:n</title>
<path fill="none" stroke="#36648b" d="M278,-190.555C278,-190.555 336,-156.555 336,-156.555"/>
</g>
<!-- 1&#45;&gt;8 -->
<g id="edge5" class="edge"><title>1:s&#45;&gt;8:n</title>
<path fill="none" stroke="#36648b" d="M278,-190.555C278,-190.555 242,-156.555 242,-156.555"/>
</g>
<!-- 2 -->
<g id="node3" class="node"><title>2</title>
<defs>
<linearGradient id="l_8" gradientUnits="userSpaceOnUse" x1="179" y1="-209.555" x2="233" y2="-209.555" >
<stop offset="0" style="stop-color:orange;stop-opacity:1.;"/>
<stop offset="1" style="stop-color:firebrick;stop-opacity:1.;"/>
</linearGradient>
</defs>
<ellipse fill="url(#l_8)" stroke="midnightblue" cx="206" cy="-209.555" rx="27" ry="18"/>
<text text-anchor="middle" x="206" y="-206.599" font-family="monospace" font-size="14.00">sw</text>
</g>
<!-- 2&#45;&gt;4 -->
<g id="edge6" class="edge"><title>2:s&#45;&gt;4:n</title>
<path fill="none" stroke="#36648b" d="M206,-190.555C206,-190.555 148,-156.555 148,-156.555"/>
</g>
<!-- 2&#45;&gt;5 -->
<g id="edge7" class="edge"><title>2:s&#45;&gt;5:n</title>
<path fill="none" stroke="#36648b" d="M206,-190.555C206,-190.555 54,-156.555 54,-156.555"/>
</g>
<!-- 2&#45;&gt;6 -->
<g id="edge8" class="edge"><title>2:s&#45;&gt;6:n</title>
<path fill="none" stroke="#36648b" d="M206,-190.555C206,-190.555 430,-156.555 430,-156.555"/>
</g>
<!-- 2&#45;&gt;7 -->
<g id="edge9" class="edge"><title>2:s&#45;&gt;7:n</title>
<path fill="none" stroke="#36648b" d="M206,-190.555C206,-190.555 336,-156.555 336,-156.555"/>
</g>
<!-- 2&#45;&gt;8 -->
<g id="edge10" class="edge"><title>2:s&#45;&gt;8:n</title>
<path fill="none" stroke="#36648b" d="M206,-190.555C206,-190.555 242,-156.555 242,-156.555"/>
</g>
<!-- 3 -->
<g id="node4" class="node"><title>3</title>
<defs>
<linearGradient id="l_9" gradientUnits="userSpaceOnUse" x1="107" y1="-209.555" x2="161" y2="-209.555" >
<stop offset="0" style="stop-color:orange;stop-opacity:1.;"/>
<stop offset="1" style="stop-color:firebrick;stop-opacity:1.;"/>
</linearGradient>
</defs>
<ellipse fill="url(#l_9)" stroke="midnightblue" cx="134" cy="-209.555" rx="27" ry="18"/>
<text text-anchor="middle" x="134" y="-206.599" font-family="monospace" font-size="14.00">sl</text>
</g>
<!-- 3&#45;&gt;4 -->
<g id="edge16" class="edge"><title>3:s&#45;&gt;4:n</title>
<path fill="none" stroke="#36648b" d="M134,-190.555C134,-190.555 148,-156.555 148,-156.555"/>
</g>
<!-- 3&#45;&gt;5 -->
<g id="edge17" class="edge"><title>3:s&#45;&gt;5:n</title>
<path fill="none" stroke="#36648b" d="M134,-190.555C134,-190.555 54,-156.555 54,-156.555"/>
</g>
<!-- 3&#45;&gt;6 -->
<g id="edge18" class="edge"><title>3:s&#45;&gt;6:n</title>
<path fill="none" stroke="#36648b" d="M134,-190.555C134,-190.555 430,-156.555 430,-156.555"/>
</g>
<!-- 3&#45;&gt;7 -->
<g id="edge19" class="edge"><title>3:s&#45;&gt;7:n</title>
<path fill="none" stroke="#36648b" d="M134,-190.555C134,-190.555 336,-156.555 336,-156.555"/>
</g>
<!-- 3&#45;&gt;8 -->
<g id="edge20" class="edge"><title>3:s&#45;&gt;8:n</title>
<path fill="none" stroke="#36648b" d="M134,-190.555C134,-190.555 242,-156.555 242,-156.555"/>
</g>
<!-- 9 -->
<g id="node5" class="node"><title>9</title>
<defs>
<linearGradient id="l_10" gradientUnits="userSpaceOnUse" x1="203.82" y1="-65.5547" x2="280.18" y2="-65.5547" >
<stop offset="0" style="stop-color:orange;stop-opacity:1.;"/>
<stop offset="1" style="stop-color:firebrick;stop-opacity:1.;"/>
</linearGradient>
</defs>
<ellipse fill="url(#l_10)" stroke="midnightblue" cx="242" cy="-65.5547" rx="38.1802" ry="18"/>
<text text-anchor="middle" x="242" y="-62.5988" font-family="monospace" font-size="14.00">0.037</text>
</g>
<!-- 10 -->
<g id="node6" class="node"><title>10</title>
<defs>
<linearGradient id="l_11" gradientUnits="userSpaceOnUse" x1="109.82" y1="-65.5547" x2="186.18" y2="-65.5547" >
<stop offset="0" style="stop-color:orange;stop-opacity:1.;"/>
<stop offset="1" style="stop-color:firebrick;stop-opacity:1.;"/>
</linearGradient>
</defs>
<ellipse fill="url(#l_11)" stroke="midnightblue" cx="148" cy="-65.5547" rx="38.1802" ry="18"/>
<text text-anchor="middle" x="148" y="-62.5988" font-family="monospace" font-size="14.00">0.000</text>
</g>
<!-- 11 -->
<g id="node7" class="node"><title>11</title>
<defs>
<linearGradient id="l_12" gradientUnits="userSpaceOnUse" x1="297.82" y1="-65.5547" x2="374.18" y2="-65.5547" >
<stop offset="0" style="stop-color:orange;stop-opacity:1.;"/>
<stop offset="1" style="stop-color:firebrick;stop-opacity:1.;"/>
</linearGradient>
</defs>
<ellipse fill="url(#l_12)" stroke="midnightblue" cx="336" cy="-65.5547" rx="38.1802" ry="18"/>
<text text-anchor="middle" x="336" y="-62.5988" font-family="monospace" font-size="14.00">0.056</text>
</g>
<!-- 4&#45;&gt;9 -->
<g id="edge21" class="edge"><title>4:s&#45;&gt;9:n</title>
<path fill="none" stroke="#36648b" d="M148,-118.555C148,-118.555 213.686,-94.7958 235.24,-86.9999"/>
<polygon fill="#36648b" stroke="#36648b" points="236.251,-89.2396 242,-84.5547 234.584,-84.6318 236.251,-89.2396"/>
</g>
<!-- 4&#45;&gt;10 -->
<g id="edge22" class="edge"><title>4:s&#45;&gt;10:n</title>
<path fill="none" stroke="#36648b" d="M148,-118.555C148,-118.555 148,-101.746 148,-91.7652"/>
<polygon fill="#36648b" stroke="#36648b" points="150.45,-91.5547 148,-84.5547 145.55,-91.5547 150.45,-91.5547"/>
</g>
<!-- 4&#45;&gt;11 -->
<g id="edge23" class="edge"><title>4:s&#45;&gt;11:n</title>
<path fill="none" stroke="#36648b" d="M148,-118.555C148,-118.555 294.519,-92.0565 328.86,-85.846"/>
<polygon fill="#36648b" stroke="#36648b" points="329.548,-88.2114 336,-84.5547 328.676,-83.3896 329.548,-88.2114"/>
</g>
<!-- 5&#45;&gt;9 -->
<g id="edge24" class="edge"><title>5:s&#45;&gt;9:n</title>
<path fill="none" stroke="#36648b" d="M54,-118.555C54,-118.555 200.519,-92.0565 234.86,-85.846"/>
<polygon fill="#36648b" stroke="#36648b" points="235.548,-88.2114 242,-84.5547 234.676,-83.3896 235.548,-88.2114"/>
</g>
<!-- 5&#45;&gt;10 -->
<g id="edge25" class="edge"><title>5:s&#45;&gt;10:n</title>
<path fill="none" stroke="#36648b" d="M54,-118.555C54,-118.555 119.686,-94.7958 141.24,-86.9999"/>
<polygon fill="#36648b" stroke="#36648b" points="142.251,-89.2396 148,-84.5547 140.584,-84.6318 142.251,-89.2396"/>
</g>
<!-- 5&#45;&gt;11 -->
<g id="edge26" class="edge"><title>5:s&#45;&gt;11:n</title>
<path fill="none" stroke="#36648b" d="M54,-118.555C54,-118.555 285.604,-90.6309 329.029,-85.3951"/>
<polygon fill="#36648b" stroke="#36648b" points="329.344,-87.8251 336,-84.5547 328.757,-82.9603 329.344,-87.8251"/>
</g>
<!-- 6&#45;&gt;9 -->
<g id="edge27" class="edge"><title>6:s&#45;&gt;9:n</title>
<path fill="none" stroke="#36648b" d="M430,-118.555C430,-118.555 283.481,-92.0565 249.14,-85.846"/>
<polygon fill="#36648b" stroke="#36648b" points="249.324,-83.3896 242,-84.5547 248.452,-88.2114 249.324,-83.3896"/>
</g>
<!-- 6&#45;&gt;10 -->
<g id="edge28" class="edge"><title>6:s&#45;&gt;10:n</title>
<path fill="none" stroke="#36648b" d="M430,-118.555C430,-118.555 198.396,-90.6309 154.971,-85.3951"/>
<polygon fill="#36648b" stroke="#36648b" points="155.243,-82.9603 148,-84.5547 154.656,-87.8251 155.243,-82.9603"/>
</g>
<!-- 6&#45;&gt;11 -->
<g id="edge29" class="edge"><title>6:s&#45;&gt;11:n</title>
<path fill="none" stroke="#36648b" d="M430,-118.555C430,-118.555 364.314,-94.7958 342.76,-86.9999"/>
<polygon fill="#36648b" stroke="#36648b" points="343.416,-84.6318 336,-84.5547 341.749,-89.2396 343.416,-84.6318"/>
</g>
<!-- 7&#45;&gt;9 -->
<g id="edge30" class="edge"><title>7:s&#45;&gt;9:n</title>
<path fill="none" stroke="#36648b" d="M336,-118.555C336,-118.555 270.314,-94.7958 248.76,-86.9999"/>
<polygon fill="#36648b" stroke="#36648b" points="249.416,-84.6318 242,-84.5547 247.749,-89.2396 249.416,-84.6318"/>
</g>
<!-- 7&#45;&gt;10 -->
<g id="edge31" class="edge"><title>7:s&#45;&gt;10:n</title>
<path fill="none" stroke="#36648b" d="M336,-118.555C336,-118.555 189.481,-92.0565 155.14,-85.846"/>
<polygon fill="#36648b" stroke="#36648b" points="155.324,-83.3896 148,-84.5547 154.452,-88.2114 155.324,-83.3896"/>
</g>
<!-- 7&#45;&gt;11 -->
<g id="edge32" class="edge"><title>7:s&#45;&gt;11:n</title>
<path fill="none" stroke="#36648b" d="M336,-118.555C336,-118.555 336,-101.746 336,-91.7652"/>
<polygon fill="#36648b" stroke="#36648b" points="338.45,-91.5547 336,-84.5547 333.55,-91.5547 338.45,-91.5547"/>
</g>
<!-- 8&#45;&gt;9 -->
<g id="edge33" class="edge"><title>8:s&#45;&gt;9:n</title>
<path fill="none" stroke="#36648b" d="M242,-118.555C242,-118.555 242,-101.746 242,-91.7652"/>
<polygon fill="#36648b" stroke="#36648b" points="244.45,-91.5547 242,-84.5547 239.55,-91.5547 244.45,-91.5547"/>
</g>
<!-- 8&#45;&gt;10 -->
<g id="edge34" class="edge"><title>8:s&#45;&gt;10:n</title>
<path fill="none" stroke="#36648b" d="M242,-118.555C242,-118.555 176.314,-94.7958 154.76,-86.9999"/>
<polygon fill="#36648b" stroke="#36648b" points="155.416,-84.6318 148,-84.5547 153.749,-89.2396 155.416,-84.6318"/>
</g>
<!-- 8&#45;&gt;11 -->
<g id="edge35" class="edge"><title>8:s&#45;&gt;11:n</title>
<path fill="none" stroke="#36648b" d="M242,-118.555C242,-118.555 307.686,-94.7958 329.24,-86.9999"/>
<polygon fill="#36648b" stroke="#36648b" points="330.251,-89.2396 336,-84.5547 328.584,-84.6318 330.251,-89.2396"/>
</g>
</g>
</svg>
